<svg width="21" height="20" viewBox="0 0 21 20" fill="none" xmlns="http://www.w3.org/2000/svg">
<path opacity="0.4" d="M20.2409 9.99989C20.2409 15.5149 15.7429 19.9999 10.2141 19.9999C4.68537 19.9999 0.187378 15.5149 0.187378 9.99989C0.187378 4.48589 4.68537 -0.000106812 10.2141 -0.000106812C15.7429 -0.000106812 20.2409 4.48589 20.2409 9.99989" fill="#606060"/>
<path d="M14.4461 8.5575C14.4461 8.7485 14.3729 8.9405 14.2265 9.0865L10.7472 12.5735C10.6059 12.7145 10.4143 12.7935 10.2138 12.7935C10.0143 12.7935 9.82277 12.7145 9.68139 12.5735L6.20011 9.0865C5.90733 8.7935 5.90733 8.3195 6.20211 8.0265C6.4969 7.7345 6.97317 7.7355 7.26595 8.0285L10.2138 10.9815L13.1617 8.0285C13.4545 7.7355 13.9297 7.7345 14.2245 8.0265C14.3729 8.1725 14.4461 8.3655 14.4461 8.5575" fill="white"/>
</svg>
