<svg width="24" height="24" viewBox="0 0 24 24" fill="none" xmlns="http://www.w3.org/2000/svg">
<path opacity="0.4" d="M12 16.08C14.2562 16.08 16.08 14.2561 16.08 12C16.08 9.74386 14.2562 7.92 12 7.92C9.74387 7.92 7.92001 9.74386 7.92001 12C7.92001 14.2561 9.74387 16.08 12 16.08Z" fill="url(#paint0_linear_3406_36)" stroke="white"/>
<path opacity="0.4" d="M12 20.27C15.53 20.27 18.82 18.19 21.11 14.59C22.01 13.18 22.01 10.81 21.11 9.4C18.82 5.8 15.53 3.72 12 3.72C8.47 3.72 5.18 5.8 2.89 9.4C1.99 10.81 1.99 13.18 2.89 14.59C5.18 18.19 8.47 20.27 12 20.27Z" fill="url(#paint1_linear_3406_36)"/>
<defs>
<linearGradient id="paint0_linear_3406_36" x1="12" y1="8.42" x2="12" y2="15.58" gradientUnits="userSpaceOnUse">
<stop stop-color="#2C82AF"/>
<stop offset="1" stop-color="#295772"/>
</linearGradient>
<linearGradient id="paint1_linear_3406_36" x1="12" y1="3.72" x2="12" y2="20.27" gradientUnits="userSpaceOnUse">
<stop stop-color="#2C82AF"/>
<stop offset="1" stop-color="#295772"/>
</linearGradient>
</defs>
</svg>
